<?xml version="1.0" encoding="utf-8"?>
<!-- Generator: Adobe Illustrator 22.0.1, SVG Export Plug-In . SVG Version: 6.00 Build 0)  -->
<svg version="1.1" id="Layer_1" xmlns="http://www.w3.org/2000/svg" xmlns:xlink="http://www.w3.org/1999/xlink" x="0px" y="0px"
	 viewBox="0 0 400 400" enable-background="new 0 0 400 400" xml:space="preserve">
<g>
	<path fill="#FFFFFF" d="M199.9,344.8c-4.5,0-8.2-3.7-8.2-8.2V34.5c0-4.5,3.7-8.2,8.2-8.2s8.2,3.7,8.2,8.2v302.1
		C208.1,341.2,204.4,344.8,199.9,344.8z"/>
</g>
<g>
	<path fill="#FFFFFF" d="M67.1,124c-6.7,0-13-1.1-18.6-3.4c-15.9-6.4-21.3-19.3-21.9-20.7c-1.6-4.2,0.4-9,4.7-10.6
		c4.2-1.6,8.9,0.4,10.6,4.6c0.2,0.5,3.5,8,13.1,11.7c10.8,4.2,26.1,2,44-6.3l2.5-1.1c53.7-25,64.9-30.1,82.4-15.2
		c3.4,2.9,3.8,8.1,0.9,11.6c-2.9,3.4-8.1,3.8-11.6,0.9c-8.9-7.6-12.5-6.6-64.8,17.6l-2.5,1.1C91.6,120.7,78.6,124,67.1,124z"/>
</g>
<g>
	<path fill="#FFFFFF" d="M328.2,124c-11.5,0-24.5-3.3-38.8-10l-2.4-1.1c-52.2-24.3-55.9-25.3-64.8-17.6c-3.4,2.9-8.6,2.5-11.6-0.9
		c-2.9-3.4-2.5-8.6,0.9-11.6c17.4-14.9,28.6-9.8,82.4,15.2l2.4,1.1c18,8.3,33.2,10.5,44,6.3c9.7-3.8,13-11.4,13.1-11.7
		c1.7-4.1,6.5-6.2,10.6-4.5c4.2,1.7,6.2,6.3,4.6,10.5c-0.6,1.4-6,14.3-21.9,20.7C341.1,122.9,334.9,124,328.2,124z"/>
</g>
<g>
	<path fill="#FFFFFF" d="M114.4,275.6L65.4,164l-49,111.6l-15-6.6l54.5-124c1.7-3.8,5.4-6.2,9.6-6.2c0,0,0,0,0,0
		c4.1,0,7.9,2.4,9.5,6.2l54.5,124L114.4,275.6z"/>
</g>
<g>
	<path fill="#FFFFFF" d="M380.7,275.6l-49-111.6l-49,111.6l-15-6.6l54.5-124c1.7-3.8,5.4-6.2,9.5-6.2c4.1,0,7.9,2.4,9.6,6.2
		l54.5,124L380.7,275.6z"/>
</g>
<g>
	<path fill="#FFFFFF" d="M65.4,344.8c-34.4,0-62.5-21-65.3-48.9c-0.3-3.2,0.7-6.5,2.9-8.9c2.2-2.4,5.3-3.8,8.5-3.8h107.7
		c3.2,0,6.3,1.4,8.5,3.8c2.2,2.4,3.2,5.6,2.9,8.9C127.8,323.8,99.8,344.8,65.4,344.8z M17.5,299.6c5,16.5,24.8,28.8,47.9,28.8
		c23.1,0,42.9-12.3,47.9-28.8H17.5z"/>
</g>
<g>
	<path fill="#FFFFFF" d="M334.3,344.8c-34.4,0-62.4-21-65.3-48.9c-0.3-3.2,0.7-6.5,2.9-8.9c2.2-2.4,5.3-3.8,8.5-3.8h107.7
		c3.2,0,6.3,1.4,8.5,3.8c2.2,2.4,3.2,5.6,2.9,8.9C396.8,323.8,368.7,344.8,334.3,344.8z M286.4,299.6c5,16.5,24.8,28.8,47.9,28.8
		c23.1,0,42.9-12.3,47.9-28.8H286.4z"/>
</g>
<g>
	<path fill="#FFFFFF" d="M289,372.3H106.3c-4.5,0-8.2-3.7-8.2-8.2c0-4.5,3.7-8.2,8.2-8.2H289c4.5,0,8.2,3.7,8.2,8.2
		C297.2,368.6,293.5,372.3,289,372.3z"/>
</g>
</svg>
