<?xml version="1.0" encoding="utf-8"?>
<!-- Generator: Adobe Illustrator 22.0.1, SVG Export Plug-In . SVG Version: 6.00 Build 0)  -->
<svg version="1.1" id="Layer_1" xmlns="http://www.w3.org/2000/svg" xmlns:xlink="http://www.w3.org/1999/xlink" x="0px" y="0px"
	 viewBox="0 0 400 400" enable-background="new 0 0 400 400" xml:space="preserve">
<g>
	<path fill="#FFFFFF" d="M258.4,79.6c-5.5,0-9.9-4.4-9.9-9.9V53.4h-87.2v16.3c0,5.5-4.4,9.9-9.9,9.9s-9.9-4.4-9.9-9.9V33.5h126.9
		v36.2C268.4,75.2,263.9,79.6,258.4,79.6z"/>
</g>
<g>
	<path fill="#FFFFFF" d="M389.7,366.4H10c-5.5,0-9.9-4.4-9.9-9.9V91.9c0-5.5,4.4-9.9,9.9-9.9h379.7c5.5,0,9.9,4.4,9.9,9.9v264.6
		C399.7,362,395.2,366.4,389.7,366.4z M20,346.6h359.8V101.8H20V346.6z"/>
</g>
<g>
	<path fill="#FFFFFF" d="M96.9,203.4c-5.5,0-9.9-4.4-9.9-9.9V91.9c0-5.5,4.4-9.9,9.9-9.9s9.9,4.4,9.9,9.9v101.5
		C106.8,198.9,102.4,203.4,96.9,203.4z"/>
</g>
<g>
	<g>
		<path fill="#FFFFFF" d="M97.5,359.7c-5.5,0-9.9-4.4-9.9-9.9v-57.6c0-5.5,4.4-9.9,9.9-9.9s9.9,4.4,9.9,9.9v57.6
			C107.4,355.2,103,359.7,97.5,359.7z"/>
	</g>
	<g>
		<path fill="#FFFFFF" d="M130.6,359.7c-5.5,0-9.9-4.4-9.9-9.9v-57.6c0-5.5,4.4-9.9,9.9-9.9s9.9,4.4,9.9,9.9v57.6
			C140.5,355.2,136,359.7,130.6,359.7z"/>
	</g>
</g>
<g>
	<g>
		<path fill="#FFFFFF" d="M270.4,359.7c-5.5,0-9.9-4.4-9.9-9.9v-57.6c0-5.5,4.4-9.9,9.9-9.9s9.9,4.4,9.9,9.9v57.6
			C280.4,355.2,275.9,359.7,270.4,359.7z"/>
	</g>
	<g>
		<path fill="#FFFFFF" d="M303.5,359.7c-5.5,0-9.9-4.4-9.9-9.9v-57.6c0-5.5,4.4-9.9,9.9-9.9s9.9,4.4,9.9,9.9v57.6
			C313.4,355.2,309,359.7,303.5,359.7z"/>
	</g>
</g>
<g>
	<path fill="#FFFFFF" d="M133.2,203.4c-5.5,0-9.9-4.4-9.9-9.9V91.9c0-5.5,4.4-9.9,9.9-9.9c5.5,0,9.9,4.4,9.9,9.9v101.5
		C143.2,198.9,138.7,203.4,133.2,203.4z"/>
</g>
<g>
	<path fill="#FFFFFF" d="M276.6,203.4c-5.5,0-9.9-4.4-9.9-9.9V91.9c0-5.5,4.4-9.9,9.9-9.9c5.5,0,9.9,4.4,9.9,9.9v101.5
		C286.6,198.9,282.1,203.4,276.6,203.4z"/>
</g>
<g>
	<path fill="#FFFFFF" d="M311,203.4c-5.5,0-9.9-4.4-9.9-9.9V91.9c0-5.5,4.4-9.9,9.9-9.9s9.9,4.4,9.9,9.9v101.5
		C320.9,198.9,316.4,203.4,311,203.4z"/>
</g>
<g>
	<path fill="#FFFFFF" d="M343.3,245.2H56.5c-2.5,0-4.8-0.9-6.6-2.6L3.4,200.8c-4.1-3.7-4.4-10-0.7-14c3.7-4.1,10-4.4,14-0.7
		l43.6,39.3h279.2l43.6-39.3c4.1-3.7,10.4-3.3,14,0.7c3.7,4.1,3.3,10.4-0.7,14l-46.5,41.8C348.1,244.3,345.7,245.2,343.3,245.2z"/>
</g>
<g>
	<path fill="#FFFFFF" d="M151.4,295.7H76.7c-5.5,0-9.9-4.4-9.9-9.9v-28.1c0-5.5,4.4-9.9,9.9-9.9s9.9,4.4,9.9,9.9v18.1h54.9v-18.1
		c0-5.5,4.4-9.9,9.9-9.9s9.9,4.4,9.9,9.9v28.1C161.3,291.3,156.9,295.7,151.4,295.7z"/>
</g>
<g>
	<path fill="#FFFFFF" d="M324.3,295.7h-74.7c-5.5,0-9.9-4.4-9.9-9.9v-28.1c0-5.5,4.4-9.9,9.9-9.9s9.9,4.4,9.9,9.9v18.1h54.9v-18.1
		c0-5.5,4.4-9.9,9.9-9.9s9.9,4.4,9.9,9.9v28.1C334.3,291.3,329.8,295.7,324.3,295.7z"/>
</g>
</svg>
