<?xml version="1.0" encoding="utf-8"?>
<!-- Generator: Adobe Illustrator 22.0.1, SVG Export Plug-In . SVG Version: 6.00 Build 0)  -->
<svg version="1.1" id="Layer_1" xmlns="http://www.w3.org/2000/svg" xmlns:xlink="http://www.w3.org/1999/xlink" x="0px" y="0px"
	 viewBox="0 0 400 400" enable-background="new 0 0 400 400" xml:space="preserve">
<g>
	<path fill="#FFFFFF" d="M214.3,244.5c-1.3,0-2.6-0.2-3.8-0.7l-72-29.1c-4.4-1.8-6.6-6.8-4.8-11.2c1.8-4.4,6.8-6.5,11.2-4.8l69.2,28
		L371.3,157L226,99.6L31.4,160.9l67.1,28.9c4.4,1.9,6.4,7,4.5,11.3c-1.9,4.4-7,6.4-11.3,4.5L6.8,169.1c-3.9-1.7-6.3-5.5-6.1-9.8
		c0.2-4.2,3-7.8,7-9.1l215.4-67.9c2.2-0.7,4.6-0.6,6.7,0.2l163.7,64.7c3.8,1.5,6.3,5.1,6.4,9.2c0.1,4.1-2.3,7.8-6,9.4l-175.6,77.7
		C217.1,244.2,215.7,244.5,214.3,244.5z M211.4,227.8C211.4,227.8,211.4,227.8,211.4,227.8L211.4,227.8z M228.4,98.8L228.4,98.8
		C228.4,98.8,228.4,98.8,228.4,98.8z"/>
</g>
<g>
	<path fill="#FFFFFF" d="M117.5,317.4c-4.8,0-8.6-3.9-8.6-8.6V178.9l97.8-32c4.5-1.5,9.4,1,10.9,5.5c1.5,4.5-1,9.4-5.5,10.9
		l-85.9,28.1v117.4C126.1,313.6,122.2,317.4,117.5,317.4z"/>
</g>
<g>
	<path fill="#FFFFFF" d="M93.9,255.6H73c-5.5,0-10.1-4.5-10.1-10.1v-35.5c0-4.8,3.9-8.6,8.6-8.6c4.8,0,8.6,3.9,8.6,8.6v28.3h13.7
		c4.8,0,8.6,3.9,8.6,8.6C102.5,251.8,98.6,255.6,93.9,255.6z"/>
</g>
<g>
	<path fill="#FFFFFF" d="M213.2,309.7c-1.6,0-3.1-0.4-4.6-1.1l-66.7-34c-4.2-2.2-5.9-7.4-3.8-11.6c2.2-4.2,7.4-5.9,11.6-3.8
		l56.3,28.7v-36.3c0-4.8,3.9-8.6,8.6-8.6c4.8,0,8.6,3.9,8.6,8.6v48c0,3.5-1.8,6.7-4.8,8.6C216.8,309.2,215,309.7,213.2,309.7z"/>
</g>
<g>
	<path fill="#FFFFFF" d="M242.1,295c-1.2,0-2.4-0.2-3.5-0.8c-4.3-2-6.3-7.1-4.3-11.4c1-2.2,24.9-52.6,115.7-49.1v-36
		c0-4.8,3.9-8.6,8.6-8.6c4.8,0,8.6,3.9,8.6,8.6v54.4l-9.3-0.7c-86.7-6.5-107.7,38.1-107.9,38.5C248.5,293.1,245.4,295,242.1,295z"/>
</g>
</svg>
