<?xml version="1.0" encoding="utf-8"?>
<!-- Generator: Adobe Illustrator 22.0.1, SVG Export Plug-In . SVG Version: 6.00 Build 0)  -->
<svg version="1.1" id="Layer_1" xmlns="http://www.w3.org/2000/svg" xmlns:xlink="http://www.w3.org/1999/xlink" x="0px" y="0px"
	 viewBox="0 0 400 400" enable-background="new 0 0 400 400" xml:space="preserve">
<g>
	<path fill="#FFFFFF" d="M9.8,373.7c-2,0-4-0.7-5.6-1.9c-2.2-1.7-3.5-4.4-3.5-7.2V34.2c0-5,4.1-9.1,9.1-9.1h253.6
		c5,0,9.1,4.1,9.1,9.1v108.4c0,5-4.1,9.1-9.1,9.1s-9.1-4.1-9.1-9.1V43.3H18.9V353l184-44.8c4.9-1.2,9.8,1.8,11,6.7
		c1.2,4.9-1.8,9.8-6.7,11L12,373.4C11.2,373.6,10.5,373.7,9.8,373.7z"/>
</g>
<g>
	<path fill="#FFFFFF" d="M83.1,335.2c-3.8,0-7.3-2.4-8.6-6.2c-1.6-4.8,0.9-9.9,5.7-11.6l112.5-38.5c2.6-0.9,5.6-0.5,7.9,1
		c32.3,20.9,44.2,17.9,47.9,15.6c11.8-7.4,7.4-42.8,6-54.4c-0.6-5,2.9-9.5,7.9-10.2c5-0.6,9.5,2.9,10.2,7.9
		c3.8,30.4,4.7,60.2-14.3,72.1c-14.1,8.9-35,4.5-63.7-13.4L86.1,334.7C85.1,335,84.1,335.2,83.1,335.2z"/>
</g>
<g>
	<path fill="#FFFFFF" d="M229.4,88.3H43.8c-5,0-9.1-4.1-9.1-9.1s4.1-9.1,9.1-9.1h185.7c5,0,9.1,4.1,9.1,9.1S234.5,88.3,229.4,88.3z"
		/>
</g>
<g>
	<path fill="#FFFFFF" d="M229.4,135.9H43.8c-5,0-9.1-4.1-9.1-9.1c0-5,4.1-9.1,9.1-9.1h185.7c5,0,9.1,4.1,9.1,9.1
		C238.6,131.8,234.5,135.9,229.4,135.9z"/>
</g>
<g>
	<path fill="#FFFFFF" d="M229.4,176.6H43.8c-5,0-9.1-4.1-9.1-9.1c0-5,4.1-9.1,9.1-9.1h185.7c5,0,9.1,4.1,9.1,9.1
		C238.6,172.6,234.5,176.6,229.4,176.6z"/>
</g>
<g>
	<path fill="#FFFFFF" d="M93.9,304.5c-31,0-56.2-25.2-56.2-56.2s25.2-56.2,56.2-56.2s56.2,25.2,56.2,56.2S124.9,304.5,93.9,304.5z
		 M93.9,210.4c-20.9,0-38,17-38,38s17,38,38,38c20.9,0,38-17,38-38S114.8,210.4,93.9,210.4z"/>
</g>
<g>
	<path fill="#FFFFFF" d="M250.6,232.3c-2.6,0-5.1-1.1-6.9-3.1c-3.3-3.8-2.9-9.6,0.9-12.8l131.7-113.9l-4.1-4.1L239.5,213.9
		c-3.8,3.3-9.5,2.9-12.8-0.9c-3.3-3.8-2.9-9.5,0.9-12.8L366.6,78.9c3.6-3.1,9-3,12.4,0.4l17.1,17.1c1.8,1.8,2.8,4.2,2.7,6.8
		c-0.1,2.5-1.2,4.9-3.1,6.6L256.5,230.1C254.8,231.6,252.7,232.3,250.6,232.3z"/>
</g>
<g>
	<path fill="#FFFFFF" d="M157.5,279.3c-3.4,0-6.6-1.9-8.1-5c-2-3.9-0.9-8.6,2.6-11.3l60.6-46.9c4-3.1,9.7-2.4,12.8,1.6
		c3.1,4,2.4,9.7-1.6,12.8l-29.1,22.5c4.7-0.4,7.6-0.1,9.5,0.3c4.1-2.3,13.2-10.7,20.8-19.3c3.3-3.8,9.1-4.1,12.9-0.8
		c3.8,3.3,4.1,9.1,0.8,12.9c-25.8,29.1-34.9,27.1-39.3,24.9c-5.3-0.4-24.1,3.7-39.2,8C159.2,279.1,158.4,279.3,157.5,279.3z"/>
</g>
</svg>
