<?xml version="1.0" encoding="utf-8"?>
<!-- Generator: Adobe Illustrator 22.0.1, SVG Export Plug-In . SVG Version: 6.00 Build 0)  -->
<svg version="1.1" id="Layer_1" xmlns="http://www.w3.org/2000/svg" xmlns:xlink="http://www.w3.org/1999/xlink" x="0px" y="0px"
	 viewBox="0 0 513 87.4" style="enable-background:new 0 0 513 87.4;" xml:space="preserve">
<style type="text/css">
	.st0{fill:#010101;}
	.st1{fill:#00A99D;}
	.st2{fill:#FFFFFF;}
</style>
<g>
	<path class="st0" d="M88.1,88.5H0.3V0.7h87.8L88.1,88.5L88.1,88.5z M3.3,85.5h81.8V3.7H3.3V85.5z"/>
</g>
<g>
	<rect x="9.5" y="9.9" class="st1" width="69.3" height="69.3"/>
</g>
<g>
	<g>
		<path class="st1" d="M162.9,19.4c-4.6,0.6-5.3,1.2-7.1,6.6c-2.1,6.3-7.2,22.7-10.9,34.6h-2.5c-3.4-10.1-7.6-22.1-11.1-31.8
			c-3.7,11-7.5,21.9-10.8,31.8H118c-3.1-10.9-7-23.3-10.5-34.8c-1.7-5.2-2.5-6-6.7-6.5v-1.9h16.8v1.9c-4.8,0.5-5,1.3-4.1,4.6
			c2.5,8.6,5,17.1,7.6,25.9c3.5-10.2,7.3-21.3,10.6-31.9h2.3c3.6,10.9,7.3,21.1,11.1,32c2.7-8.4,6.3-19.9,7.6-25.2
			c1-3.8,0.4-4.7-5.1-5.3v-1.9h15.3L162.9,19.4L162.9,19.4z"/>
	</g>
	<g>
		<path class="st1" d="M179.4,60.7c-1.1,0-2.6-0.5-3.2-1.3c-0.9-0.8-1.3-1.8-1.6-2.8c-2.6,1.7-5.8,4.1-7.7,4.1
			c-4.8,0-8.1-3.9-8.1-8.1c0-3.2,1.7-5.2,5.3-6.5c4-1.4,8.9-3.1,10.4-4.3v-1.6c0-4.4-2.2-7-5.4-7c-1.4,0-2.3,0.7-3,1.5
			c-0.7,0.9-1.2,2.4-1.7,4.3c-0.4,1.2-1,1.6-2.1,1.6c-1.3,0-3.1-1.4-3.1-3c0-1,0.8-1.8,2.2-2.7c2.1-1.5,5.9-3.8,9.6-4.6
			c2.1,0,4.1,0.6,5.7,1.8c2.4,2,3.4,4.3,3.4,7.7c0,3.5,0,8.9,0,12.4c0,3,1.1,3.9,2.3,3.9c0.8,0,1.6-0.3,2.3-0.7l0.7,1.9L179.4,60.7z
			 M174.4,44.2c-1.4,0.7-4.2,1.9-5.6,2.6c-2.4,1.1-3.8,2.3-3.8,4.7c0,3.5,2.6,5,4.6,5c1.6,0,3.7-0.9,4.9-2.1
			C174.4,51.3,174.4,47.2,174.4,44.2z"/>
	</g>
	<g>
		<path class="st1" d="M185.6,59.9V58c4.1-0.4,4.6-0.8,4.6-5V22c0-3.9-0.3-4.3-4.4-4.8v-1.8c3.7-0.4,7.8-1.4,10.1-2.2
			c0,3,0,6.1,0,9.2V53c0,4.3,0.4,4.6,4.5,5v1.9H185.6L185.6,59.9z"/>
	</g>
	<g>
		<path class="st1" d="M219.7,39.1c-1.3-3.9-3.2-6.5-7-6.5c-2.2,0-4.1,1.6-4.1,4.1c0,2.8,2.1,4.1,5.6,5.7c5.3,2.4,8.5,4.5,8.5,9.1
			c0,6.1-5.6,9.2-10.9,9.2c-3.4,0-6.5-1.1-7.9-1.9c-0.3-1.8-0.9-5.7-1.2-7.9l1.9-0.3c1.2,4.2,3.6,7.8,8.1,7.8c2.5,0,4.5-1.7,4.5-4.3
			c0-2.8-1.6-4.3-5.3-6c-4.3-2-8.4-4.2-8.4-9.2c0-4.8,4.2-8.6,10.5-8.6c2.8,0,5.2,0.7,6.5,0.9c0.2,1.6,0.7,5.7,1,7.3L219.7,39.1z"/>
	</g>
	<g>
		<path class="st1" d="M243.9,59.9V58c3.6-0.4,4.1-0.8,4.1-4.9V42.2c0-5.4-2.1-7.9-6.1-7.9c-2.3,0-4.8,1.1-6.5,3.1V53
			c0,4.1,0.5,4.5,4.2,4.9v1.9h-14.5v-1.9c3.7-0.3,4.5-0.6,4.5-5V21.6c0-3.4-0.2-4.2-4.5-4.6v-1.8c3.7-0.3,7.7-1.3,10.2-2.2
			c0,2.5,0,5.4,0,8v13.9c2.3-2.3,5.9-4.7,9.4-4.7c5.4,0,9.1,3.4,9.1,11.1v11.6c0,4.3,0.5,4.6,4.2,4.9v1.9h-14.1V59.9z"/>
	</g>
	<g>
		<path class="st1" d="M297.9,27.6c-1.1-4.3-3.2-8.7-9-8.7c-4.9,0-6.9,3.4-6.9,6.9c0,4.5,3,6.8,8.3,9.4c5.5,2.8,11.3,5.8,11.3,13.1
			c0,7.1-6,12.6-14.6,12.6c-3.7,0-7.4-1.1-10.2-2c-0.4-1.6-1.3-7.2-1.8-10.3l2.1-0.5c1.1,4.1,4.2,10.4,10.8,10.4
			c4.8,0,7.6-3,7.6-7.6c0-4.7-3.2-6.9-8.3-9.6c-4.7-2.5-10.9-5.7-10.9-13.1c0-6.4,4.8-11.6,13.6-11.6c4,0,7.6,1,9,1.1
			c0.3,2.4,0.6,5.3,1.1,9.5L297.9,27.6z"/>
	</g>
	<g>
		<path class="st1" d="M321.2,30.4c8.4,0,14.4,6.3,14.4,14.7c0,10.6-7.8,15.7-14.4,15.7c-9.2,0-14.7-7.3-14.7-14.7
			C306.5,35.5,314.7,30.4,321.2,30.4z M320.4,32.7c-3.8,0-7.2,3.7-7.2,11.4c0,8.3,3.5,14.3,8.6,14.3c3.8,0,7-2.7,7-11.8
			C328.8,38.7,325.8,32.7,320.4,32.7z"/>
	</g>
	<g>
		<path class="st1" d="M338,59.9V58c4.1-0.4,4.6-0.8,4.6-5V22c0-3.9-0.3-4.3-4.4-4.8v-1.8c3.7-0.4,7.8-1.4,10.1-2.2c0,3,0,6.1,0,9.2
			V53c0,4.3,0.4,4.6,4.5,5v1.9H338L338,59.9z"/>
	</g>
	<g>
		<path class="st1" d="M354.8,59.9V58c4-0.4,4.5-0.7,4.5-5.2V39.5c0-4.1-0.2-4.4-4-5v-1.7c3.5-0.6,6.8-1.4,9.7-2.6
			c0,2.7,0,5.5,0,8.2v14.3c0,4.4,0.4,4.8,4.6,5.2v1.9L354.8,59.9L354.8,59.9L354.8,59.9z M361.8,24.3c-1.9,0-3.7-1.7-3.7-3.7
			c0-2.2,1.7-3.8,3.8-3.8c2,0,3.6,1.6,3.6,3.8C365.4,22.6,363.8,24.3,361.8,24.3z"/>
	</g>
	<g>
		<path class="st1" d="M396.5,53.9c-2.9,3.9-7.3,6.7-11.2,6.7c-8.4,0-13.4-6.7-13.4-13.8c0-5.1,2.3-9.5,6.6-12.7
			c3.6-2.8,7.6-3.8,10.2-3.8c2.9,0,5,0.9,6,1.7c0.9,0.7,1.1,1.2,1.1,2c0,1.6-1.7,3.1-2.5,3.1c-0.4,0-0.6-0.1-1.3-0.7
			c-2.2-1.9-4.4-2.9-6.6-2.9c-4,0-7.7,3.4-7.7,10.3c-0.1,9,6.2,12,9.8,12c2.7,0,4.9-0.7,7.8-3.4L396.5,53.9z"/>
	</g>
	<g>
		<path class="st1" d="M399,59.9V58c4-0.4,4.5-0.7,4.5-5.2V39.5c0-4.1-0.2-4.4-4-5v-1.7c3.5-0.6,6.8-1.4,9.7-2.6c0,2.7,0,5.5,0,8.2
			v14.3c0,4.4,0.4,4.8,4.6,5.2v1.9L399,59.9L399,59.9z M406,24.3c-1.9,0-3.7-1.7-3.7-3.7c0-2.2,1.7-3.8,3.8-3.8c2,0,3.6,1.6,3.6,3.8
			C409.6,22.6,408,24.3,406,24.3z"/>
	</g>
	<g>
		<path class="st1" d="M428.5,59.9c-1.1,0.6-2.2,0.8-2.8,0.8c-4.3,0-6.7-2.5-6.7-7.9V33.9h-4.4l-0.3-0.8l1.8-2h2.9v-5.5
			c1.4-1.4,3.5-3.1,5-4.5l1,0.2c-0.1,2.6-0.2,6.3-0.2,9.8h7.3c0.6,0.7,0.4,2.2-0.4,2.8h-6.9v16.6c0,5.3,2.1,6.2,3.7,6.2
			c1.5,0,2.9-0.5,3.8-1l0.6,1.8L428.5,59.9z"/>
	</g>
	<g>
		<path class="st1" d="M448.5,30.4c8.4,0,14.4,6.3,14.4,14.7c0,10.6-7.8,15.7-14.4,15.7c-9.2,0-14.7-7.3-14.7-14.7
			C433.8,35.5,442.1,30.4,448.5,30.4z M447.7,32.7c-3.8,0-7.2,3.7-7.2,11.4c0,8.3,3.5,14.3,8.6,14.3c3.8,0,7-2.7,7-11.8
			C456.2,38.7,453.2,32.7,447.7,32.7z"/>
	</g>
	<g>
		<path class="st1" d="M481.4,59.9H466V58c4-0.4,4.4-0.7,4.4-4.9V39.4c0-4.1-0.3-4.3-3.9-4.8v-1.7c3.4-0.5,6.4-1.3,9.7-2.6
			c0,2.2,0,5,0,7.2c2.4-3.6,5.1-7,8.2-7c2.4,0,3.9,1.5,3.9,3.3s-1.3,3.3-2.4,3.9c-0.7,0.4-1.2,0.3-1.8-0.2c-1-1-1.8-1.7-3-1.7
			c-1.3,0-3.6,1.8-5,5v12.3c0,4.2,0.4,4.5,5.3,5L481.4,59.9L481.4,59.9z"/>
	</g>
	<g>
		<path class="st1" d="M506.9,39.1c-1.3-3.9-3.2-6.5-7-6.5c-2.2,0-4.1,1.6-4.1,4.1c0,2.8,2.1,4.1,5.6,5.7c5.3,2.4,8.5,4.5,8.5,9.1
			c0,6.1-5.6,9.2-10.9,9.2c-3.4,0-6.5-1.1-7.9-1.9c-0.3-1.8-0.9-5.7-1.2-7.9l1.9-0.3c1.2,4.2,3.6,7.8,8.1,7.8c2.5,0,4.5-1.7,4.5-4.3
			c0-2.8-1.6-4.3-5.3-6c-4.3-2-8.4-4.2-8.4-9.2c0-4.8,4.2-8.6,10.5-8.6c2.8,0,5.2,0.7,6.5,0.9c0.2,1.6,0.7,5.7,1,7.3L506.9,39.1z"/>
	</g>
</g>
<g>
	<g>
		<path class="st2" d="M75.4,26.9c-4.6,0.6-5.3,1.2-7.1,6.6c-2.1,6.3-7.2,22.7-10.9,34.6h-2.5C51.5,58,47.3,46,43.8,36.3
			c-3.7,11-7.5,21.9-10.8,31.8h-2.5c-3.1-10.9-7-23.3-10.5-34.8c-1.7-5.2-2.5-6-6.7-6.5v-1.9h16.8v1.9c-4.8,0.5-5,1.3-4.1,4.6
			c2.5,8.6,5,17.1,7.6,25.9c3.5-10.2,7.3-21.3,10.6-31.9h2.3c3.6,10.9,7.3,21.1,11.1,32c2.7-8.4,6.3-19.9,7.6-25.2
			c1-3.8,0.4-4.7-5.1-5.3V25h15.1v1.9H75.4z"/>
	</g>
</g>
<g>
	<path class="st1" d="M289,72.3l-1.7,1.6c-1.1-1.2-2.4-1.8-3.9-1.8c-1.2,0-2.2,0.4-3.1,1.2c-0.8,0.8-1.2,1.8-1.2,3.1
		c0,0.8,0.2,1.6,0.5,2.2c0.4,0.7,0.9,1.2,1.6,1.5c0.7,0.4,1.4,0.6,2.2,0.6c0.7,0,1.3-0.1,1.9-0.4c0.6-0.3,1.2-0.7,1.9-1.4l1.6,1.7
		c-0.9,0.9-1.8,1.5-2.6,1.9c-0.8,0.4-1.8,0.5-2.8,0.5c-2,0-3.6-0.6-4.8-1.9c-1.3-1.2-1.9-2.8-1.9-4.8c0-1.3,0.3-2.4,0.9-3.4
		s1.4-1.8,2.4-2.4c1.1-0.6,2.2-0.9,3.4-0.9c1,0,2,0.2,3,0.7C287.5,70.8,288.3,71.5,289,72.3z"/>
	<path class="st1" d="M290.3,73.3h2v1.2c0.2-0.5,0.5-0.8,0.9-1.1s0.8-0.4,1.2-0.4c0.3,0,0.6,0.1,1,0.2l-0.7,2
		c-0.3-0.1-0.5-0.2-0.7-0.2c-0.4,0-0.7,0.2-0.9,0.7c-0.2,0.4-0.4,1.3-0.4,2.6l0,0.5v3.8h-2.3V73.3z"/>
	<path class="st1" d="M297.4,69.5c0.4,0,0.8,0.1,1.1,0.4c0.3,0.3,0.4,0.7,0.4,1.1c0,0.4-0.1,0.8-0.4,1.1c-0.3,0.3-0.6,0.4-1,0.4
		c-0.4,0-0.8-0.2-1.1-0.5c-0.3-0.3-0.4-0.7-0.4-1.1c0-0.4,0.1-0.8,0.4-1.1C296.7,69.6,297,69.5,297.4,69.5z M296.3,73.3h2.3v9.3
		h-2.3V73.3z"/>
	<path class="st1" d="M300.7,73.3h2.3v1.1c0.4-0.4,0.8-0.8,1.3-1c0.5-0.2,1-0.3,1.6-0.3c0.6,0,1.1,0.1,1.6,0.4
		c0.5,0.3,0.8,0.7,1.1,1.3c0.4-0.5,0.8-1,1.4-1.3c0.5-0.3,1.1-0.4,1.8-0.4c0.7,0,1.2,0.2,1.8,0.5s0.9,0.7,1.1,1.2
		c0.2,0.5,0.3,1.3,0.3,2.4v5.5h-2.4v-4.7c0-1.1-0.1-1.8-0.4-2.2c-0.3-0.4-0.7-0.6-1.2-0.6c-0.4,0-0.8,0.1-1.1,0.3s-0.6,0.5-0.7,0.9
		s-0.2,1.1-0.2,1.9v4.2h-2.4v-4.5c0-0.8-0.1-1.4-0.2-1.8c-0.1-0.4-0.3-0.7-0.6-0.8c-0.2-0.2-0.5-0.3-0.9-0.3c-0.4,0-0.7,0.1-1.1,0.3
		c-0.3,0.2-0.6,0.6-0.7,1c-0.2,0.4-0.2,1.1-0.2,2v4.2h-2.3V73.3z"/>
	<path class="st1" d="M318.2,69.5c0.4,0,0.8,0.1,1.1,0.4c0.3,0.3,0.4,0.7,0.4,1.1c0,0.4-0.1,0.8-0.4,1.1c-0.3,0.3-0.6,0.4-1,0.4
		c-0.4,0-0.8-0.2-1.1-0.5c-0.3-0.3-0.4-0.7-0.4-1.1c0-0.4,0.1-0.8,0.4-1.1C317.4,69.6,317.8,69.5,318.2,69.5z M317,73.3h2.3v9.3H317
		V73.3z"/>
	<path class="st1" d="M321.5,73.3h2.3v1c0.5-0.4,1-0.8,1.4-0.9c0.4-0.2,0.9-0.3,1.3-0.3c0.9,0,1.7,0.3,2.4,1
		c0.5,0.5,0.8,1.4,0.8,2.4v6.2h-2.3v-4.1c0-1.1-0.1-1.9-0.2-2.2c-0.1-0.4-0.3-0.6-0.5-0.8c-0.2-0.2-0.6-0.3-0.9-0.3
		c-0.5,0-0.9,0.2-1.2,0.5c-0.3,0.3-0.6,0.8-0.7,1.3c-0.1,0.3-0.1,0.9-0.1,1.9v3.7h-2.3V73.3z"/>
	<path class="st1" d="M338.9,73.3h2.3v9.3h-2.3v-1c-0.5,0.4-0.9,0.7-1.4,0.9c-0.5,0.2-1,0.3-1.5,0.3c-1.2,0-2.3-0.5-3.1-1.4
		s-1.3-2.1-1.3-3.5c0-1.4,0.4-2.6,1.3-3.5c0.9-0.9,1.9-1.4,3.1-1.4c0.6,0,1.1,0.1,1.6,0.3s0.9,0.5,1.4,1V73.3z M336.5,75.3
		c-0.7,0-1.3,0.3-1.8,0.8c-0.5,0.5-0.7,1.2-0.7,2c0,0.8,0.2,1.5,0.7,2c0.5,0.5,1.1,0.8,1.8,0.8c0.7,0,1.3-0.3,1.8-0.8
		c0.5-0.5,0.7-1.2,0.7-2c0-0.8-0.2-1.5-0.7-2C337.8,75.5,337.2,75.3,336.5,75.3z"/>
	<path class="st1" d="M343.4,69.7h2.3v13h-2.3V69.7z"/>
	<path class="st1" d="M353.1,70h2.8c1.8,0,3.2,0.2,4.1,0.7c0.9,0.5,1.6,1.2,2.2,2.2c0.6,1,0.9,2.2,0.9,3.6c0,1-0.2,1.9-0.5,2.7
		c-0.3,0.8-0.8,1.5-1.3,2c-0.6,0.5-1.2,0.9-1.8,1.1c-0.7,0.2-1.8,0.3-3.5,0.3h-2.9V70z M355.4,72.4v8h1.1c1.1,0,1.9-0.1,2.4-0.4
		c0.5-0.3,0.9-0.7,1.2-1.3c0.3-0.6,0.5-1.3,0.5-2.2c0-1.3-0.4-2.4-1.1-3.1c-0.7-0.7-1.8-1-3.3-1H355.4z"/>
	<path class="st1" d="M374.5,78.7h-7.5c0.1,0.7,0.4,1.2,0.9,1.6s1.1,0.6,1.8,0.6c0.9,0,1.6-0.3,2.3-0.9l2,0.9
		c-0.5,0.7-1.1,1.2-1.8,1.6c-0.7,0.3-1.5,0.5-2.4,0.5c-1.5,0-2.7-0.5-3.6-1.4c-0.9-0.9-1.4-2.1-1.4-3.5c0-1.4,0.5-2.6,1.4-3.6
		c0.9-0.9,2.1-1.4,3.5-1.4c1.5,0,2.7,0.5,3.6,1.4c0.9,0.9,1.4,2.2,1.4,3.7L374.5,78.7z M372.1,76.8c-0.2-0.5-0.5-0.9-0.9-1.3
		c-0.5-0.3-1-0.5-1.6-0.5c-0.7,0-1.2,0.2-1.7,0.5c-0.3,0.2-0.6,0.6-0.9,1.2H372.1z"/>
	<path class="st1" d="M375.3,73.3h0.8c0-1.2,0-1.9,0.1-2.2c0.1-0.5,0.3-0.9,0.6-1.2c0.4-0.3,0.9-0.5,1.6-0.5c0.5,0,1,0.1,1.6,0.3
		v1.8c-0.3-0.1-0.6-0.1-0.8-0.1c-0.3,0-0.5,0.1-0.6,0.2c-0.1,0.1-0.1,0.3-0.1,0.5l0,1.2h1.5v2h-1.5v7.4h-2.3v-7.4h-0.8V73.3z"/>
	<path class="st1" d="M390.7,78.7h-7.5c0.1,0.7,0.4,1.2,0.9,1.6s1.1,0.6,1.8,0.6c0.9,0,1.6-0.3,2.3-0.9l2,0.9
		c-0.5,0.7-1.1,1.2-1.8,1.6c-0.7,0.3-1.5,0.5-2.4,0.5c-1.5,0-2.7-0.5-3.6-1.4c-0.9-0.9-1.4-2.1-1.4-3.5c0-1.4,0.5-2.6,1.4-3.6
		c0.9-0.9,2.1-1.4,3.5-1.4c1.5,0,2.7,0.5,3.6,1.4c0.9,0.9,1.4,2.2,1.4,3.7L390.7,78.7z M388.3,76.8c-0.2-0.5-0.5-0.9-0.9-1.3
		c-0.5-0.3-1-0.5-1.6-0.5c-0.7,0-1.2,0.2-1.7,0.5c-0.3,0.2-0.6,0.6-0.9,1.2H388.3z"/>
	<path class="st1" d="M392.5,73.3h2.3v1c0.5-0.4,1-0.8,1.4-0.9c0.4-0.2,0.9-0.3,1.3-0.3c0.9,0,1.7,0.3,2.4,1
		c0.5,0.5,0.8,1.4,0.8,2.4v6.2h-2.3v-4.1c0-1.1-0.1-1.9-0.2-2.2c-0.1-0.4-0.3-0.6-0.5-0.8c-0.2-0.2-0.6-0.3-0.9-0.3
		c-0.5,0-0.9,0.2-1.2,0.5c-0.3,0.3-0.6,0.8-0.7,1.3c-0.1,0.3-0.1,0.9-0.1,1.9v3.7h-2.3V73.3z"/>
	<path class="st1" d="M412.3,75.2l-2,1.1c-0.4-0.4-0.7-0.6-1.1-0.8c-0.4-0.1-0.8-0.2-1.3-0.2c-0.9,0-1.6,0.3-2.1,0.8
		c-0.5,0.5-0.8,1.2-0.8,2c0,0.8,0.3,1.4,0.8,1.9c0.5,0.5,1.2,0.8,2.1,0.8c1,0,1.9-0.4,2.5-1.1l1.8,1.3c-1,1.3-2.4,2-4.2,2
		c-1.6,0-2.9-0.5-3.9-1.5c-0.9-1-1.4-2.1-1.4-3.4c0-0.9,0.2-1.7,0.7-2.5c0.5-0.8,1.1-1.4,1.9-1.8c0.8-0.4,1.7-0.7,2.7-0.7
		c0.9,0,1.8,0.2,2.5,0.6S411.8,74.5,412.3,75.2z"/>
	<path class="st1" d="M423.7,78.7h-7.5c0.1,0.7,0.4,1.2,0.9,1.6s1.1,0.6,1.8,0.6c0.9,0,1.6-0.3,2.3-0.9l2,0.9
		c-0.5,0.7-1.1,1.2-1.8,1.6c-0.7,0.3-1.5,0.5-2.4,0.5c-1.5,0-2.7-0.5-3.6-1.4c-0.9-0.9-1.4-2.1-1.4-3.5c0-1.4,0.5-2.6,1.4-3.6
		c0.9-0.9,2.1-1.4,3.5-1.4c1.5,0,2.7,0.5,3.6,1.4c0.9,0.9,1.4,2.2,1.4,3.7L423.7,78.7z M421.4,76.8c-0.2-0.5-0.5-0.9-0.9-1.3
		c-0.5-0.3-1-0.5-1.6-0.5c-0.7,0-1.2,0.2-1.7,0.5c-0.3,0.2-0.6,0.6-0.9,1.2H421.4z"/>
	<path class="st1" d="M437.4,71.8l-1.8,1.6c-0.6-0.9-1.3-1.3-1.9-1.3c-0.3,0-0.6,0.1-0.8,0.3c-0.2,0.2-0.3,0.4-0.3,0.6
		s0.1,0.4,0.2,0.6c0.2,0.3,0.8,0.8,1.8,1.6c0.9,0.8,1.5,1.3,1.7,1.5c0.5,0.5,0.8,1,1,1.4c0.2,0.4,0.3,0.9,0.3,1.5
		c0,1-0.4,1.9-1.1,2.6c-0.7,0.7-1.7,1-2.8,1c-0.9,0-1.7-0.2-2.4-0.7c-0.7-0.4-1.2-1.1-1.7-2.1l2-1.2c0.6,1.1,1.3,1.7,2.1,1.7
		c0.4,0,0.8-0.1,1-0.4c0.3-0.2,0.4-0.5,0.4-0.8c0-0.3-0.1-0.6-0.3-0.9c-0.2-0.3-0.7-0.7-1.4-1.3c-1.4-1.1-2.3-2-2.7-2.6
		c-0.4-0.6-0.6-1.2-0.6-1.8c0-0.9,0.3-1.6,1-2.3c0.7-0.6,1.5-0.9,2.5-0.9c0.6,0,1.2,0.1,1.8,0.4C436.2,70.5,436.8,71,437.4,71.8z"/>
	<path class="st1" d="M442,73.3v1c0.4-0.4,0.9-0.7,1.4-1c0.5-0.2,1-0.3,1.6-0.3c1.2,0,2.3,0.5,3.1,1.4c0.9,0.9,1.3,2.1,1.3,3.5
		c0,1.4-0.4,2.6-1.3,3.5s-1.9,1.4-3.1,1.4c-0.5,0-1-0.1-1.5-0.3c-0.5-0.2-0.9-0.5-1.4-0.9v4.4h-2.3V73.3H442z M444.5,75.3
		c-0.7,0-1.4,0.3-1.8,0.8s-0.7,1.2-0.7,2c0,0.8,0.2,1.5,0.7,2s1.1,0.8,1.8,0.8c0.7,0,1.3-0.3,1.8-0.8c0.5-0.5,0.7-1.2,0.7-2
		c0-0.8-0.2-1.5-0.7-2C445.8,75.5,445.2,75.3,444.5,75.3z"/>
	<path class="st1" d="M460.7,78.7h-7.5c0.1,0.7,0.4,1.2,0.9,1.6s1.1,0.6,1.8,0.6c0.9,0,1.6-0.3,2.3-0.9l2,0.9
		c-0.5,0.7-1.1,1.2-1.8,1.6c-0.7,0.3-1.5,0.5-2.4,0.5c-1.5,0-2.7-0.5-3.6-1.4c-0.9-0.9-1.4-2.1-1.4-3.5c0-1.4,0.5-2.6,1.4-3.6
		c0.9-0.9,2.1-1.4,3.5-1.4c1.5,0,2.7,0.5,3.6,1.4c0.9,0.9,1.4,2.2,1.4,3.7L460.7,78.7z M458.3,76.8c-0.2-0.5-0.5-0.9-0.9-1.3
		c-0.5-0.3-1-0.5-1.6-0.5c-0.7,0-1.2,0.2-1.7,0.5c-0.3,0.2-0.6,0.6-0.9,1.2H458.3z"/>
	<path class="st1" d="M471.7,75.2l-2,1.1c-0.4-0.4-0.7-0.6-1.1-0.8c-0.4-0.1-0.8-0.2-1.3-0.2c-0.9,0-1.6,0.3-2.1,0.8
		c-0.5,0.5-0.8,1.2-0.8,2c0,0.8,0.3,1.4,0.8,1.9c0.5,0.5,1.2,0.8,2.1,0.8c1,0,1.9-0.4,2.5-1.1l1.8,1.3c-1,1.3-2.4,2-4.2,2
		c-1.6,0-2.9-0.5-3.9-1.5c-0.9-1-1.4-2.1-1.4-3.4c0-0.9,0.2-1.7,0.7-2.5c0.5-0.8,1.1-1.4,1.9-1.8c0.8-0.4,1.7-0.7,2.7-0.7
		c0.9,0,1.8,0.2,2.5,0.6S471.2,74.5,471.7,75.2z"/>
	<path class="st1" d="M474.7,69.5c0.4,0,0.8,0.1,1.1,0.4c0.3,0.3,0.4,0.7,0.4,1.1c0,0.4-0.1,0.8-0.4,1.1c-0.3,0.3-0.6,0.4-1,0.4
		c-0.4,0-0.8-0.2-1.1-0.5c-0.3-0.3-0.4-0.7-0.4-1.1c0-0.4,0.1-0.8,0.4-1.1C474,69.6,474.3,69.5,474.7,69.5z M473.6,73.3h2.3v9.3
		h-2.3V73.3z"/>
	<path class="st1" d="M484.9,73.3h2.3v9.3h-2.3v-1c-0.5,0.4-0.9,0.7-1.4,0.9s-1,0.3-1.5,0.3c-1.2,0-2.3-0.5-3.1-1.4
		s-1.3-2.1-1.3-3.5c0-1.4,0.4-2.6,1.3-3.5c0.9-0.9,1.9-1.4,3.1-1.4c0.6,0,1.1,0.1,1.6,0.3c0.5,0.2,0.9,0.5,1.4,1V73.3z M482.5,75.3
		c-0.7,0-1.3,0.3-1.8,0.8c-0.5,0.5-0.7,1.2-0.7,2c0,0.8,0.2,1.5,0.7,2c0.5,0.5,1.1,0.8,1.8,0.8c0.7,0,1.3-0.3,1.8-0.8
		c0.5-0.5,0.7-1.2,0.7-2c0-0.8-0.2-1.5-0.7-2C483.8,75.5,483.2,75.3,482.5,75.3z"/>
	<path class="st1" d="M489.4,69.7h2.3v13h-2.3V69.7z"/>
	<path class="st1" d="M494.8,69.5c0.4,0,0.8,0.1,1.1,0.4c0.3,0.3,0.4,0.7,0.4,1.1c0,0.4-0.1,0.8-0.4,1.1c-0.3,0.3-0.6,0.4-1,0.4
		c-0.4,0-0.8-0.2-1.1-0.5c-0.3-0.3-0.4-0.7-0.4-1.1c0-0.4,0.1-0.8,0.4-1.1C494,69.6,494.4,69.5,494.8,69.5z M493.6,73.3h2.3v9.3
		h-2.3V73.3z"/>
	<path class="st1" d="M503.8,74.6l-1.5,1.5c-0.6-0.6-1.1-0.9-1.6-0.9c-0.3,0-0.5,0.1-0.6,0.2c-0.1,0.1-0.2,0.3-0.2,0.4
		c0,0.1,0,0.2,0.1,0.3s0.3,0.3,0.7,0.4l0.9,0.4c0.9,0.4,1.5,0.9,1.9,1.4c0.3,0.5,0.5,1,0.5,1.6c0,0.8-0.3,1.5-0.9,2.1
		c-0.6,0.6-1.4,0.8-2.5,0.8c-1.4,0-2.5-0.5-3.3-1.6l1.4-1.6c0.3,0.3,0.6,0.6,1,0.8c0.4,0.2,0.7,0.3,1,0.3c0.3,0,0.6-0.1,0.7-0.2
		s0.3-0.3,0.3-0.5c0-0.4-0.3-0.7-1-1.1l-0.8-0.4c-1.5-0.8-2.3-1.7-2.3-2.9c0-0.7,0.3-1.4,0.9-1.9s1.3-0.8,2.2-0.8
		c0.6,0,1.2,0.1,1.7,0.4C503,73.8,503.4,74.1,503.8,74.6z"/>
	<path class="st1" d="M506.1,69.9h2.3v3.4h1.4v2h-1.4v7.3h-2.3v-7.3h-1.2v-2h1.2V69.9z"/>
</g>
</svg>
