<?xml version="1.0" encoding="utf-8"?>
<!-- Generator: Adobe Illustrator 22.0.1, SVG Export Plug-In . SVG Version: 6.00 Build 0)  -->
<svg version="1.1" id="Layer_1" xmlns="http://www.w3.org/2000/svg" xmlns:xlink="http://www.w3.org/1999/xlink" x="0px" y="0px"
	 viewBox="0 0 400 400" enable-background="new 0 0 400 400" xml:space="preserve">
<path fill="#FFFFFF" d="M197.8,330.6H41.9c-4.3,0-7.8-3.5-7.8-7.8s3.5-7.8,7.8-7.8h155.9c4.3,0,7.8,3.5,7.8,7.8
	S202.1,330.6,197.8,330.6z"/>
<path fill="#FFFFFF" d="M227.6,362.7H9.8c-4.3,0-7.8-3.5-7.8-7.8c0-4.3,3.5-7.8,7.8-7.8h217.8c4.3,0,7.8,3.5,7.8,7.8
	C235.3,359.3,231.9,362.7,227.6,362.7z"/>
<g>
	<path fill="#FFFFFF" d="M174.1,225.2L104,157.1l86.2-88.7l70.1,68.1L174.1,225.2z M126,156.8l47.8,46.5l64.6-66.4l-47.8-46.5
		L126,156.8z"/>
</g>
<g>
	
		<rect x="118.2" y="139.7" transform="matrix(-0.6968 0.7173 -0.7173 -0.6968 368.8816 231.9283)" fill="#FFFFFF" width="34.4" height="108.4"/>
	<path fill="#FFFFFF" d="M162.5,255l-88.9-86.3l34.8-35.8l88.9,86.3L162.5,255z M95.6,168.4l66.6,64.7l13.1-13.5l-66.6-64.7
		L95.6,168.4z"/>
</g>
<g>
	
		<rect x="213.9" y="40.3" transform="matrix(-0.6968 0.7173 -0.7173 -0.6968 459.8028 -5.4281)" fill="#FFFFFF" width="34.4" height="108.4"/>
	<path fill="#FFFFFF" d="M258.1,155.5l-88.9-86.3L204,33.4l88.9,86.3L258.1,155.5z M191.2,68.9l66.6,64.7l13.1-13.5l-66.6-64.7
		L191.2,68.9z"/>
</g>
<g>
	<path fill="#FFFFFF" d="M205.3,226.6c-1.9,0-3.9-0.7-5.4-2.2c-3.1-3-3.1-7.9-0.2-11l51.4-52.9c3-3.1,7.9-3.1,11-0.2
		c3.1,3,3.1,7.9,0.2,11l-51.4,52.9C209.4,225.8,207.4,226.6,205.3,226.6z"/>
</g>
<g>
	<path fill="#FFFFFF" d="M349.1,356.4c-1.9,0-3.9-0.7-5.4-2.2c-3.1-3-3.1-7.9-0.2-11l41.6-42.8c3-3.1,7.9-3.1,11-0.2
		c3.1,3,3.1,7.9,0.2,11L354.7,354C353.2,355.6,351.1,356.4,349.1,356.4z"/>
</g>
<g>
	<path fill="#FFFFFF" d="M344.5,319.5c-0.5,0-1,0-1.5-0.2c-22.2-4.5-46.7-17-65.5-33.7c-21.9-19.4-34.3-42.6-35.1-65.3
		c-0.1-4.3,3.2-7.9,7.5-8c4.4-0.1,7.9,3.2,8,7.5c1,31.7,37.4,74.1,88,84.2c4.2,0.8,6.9,4.9,6.1,9.1
		C351.4,316.9,348.1,319.5,344.5,319.5z"/>
</g>
<g>
	<path fill="#FFFFFF" d="M362.8,300.7c-3.5,0-6.7-2.4-7.6-6c-11.6-50.3-55-85.5-86.7-85.6c-4.3,0-7.8-3.5-7.7-7.8
		c0-4.3,3.5-7.7,7.8-7.7c22.7,0.1,46.2,11.8,66.3,33.2c17.2,18.3,30.5,42.4,35.6,64.5c1,4.2-1.6,8.3-5.8,9.3
		C363.9,300.6,363.3,300.7,362.8,300.7z"/>
</g>
</svg>
