<?xml version="1.0" encoding="utf-8"?>
<!-- Generator: Adobe Illustrator 22.0.1, SVG Export Plug-In . SVG Version: 6.00 Build 0)  -->
<svg version="1.1" id="Layer_1" xmlns="http://www.w3.org/2000/svg" xmlns:xlink="http://www.w3.org/1999/xlink" x="0px" y="0px"
	 viewBox="0 0 400 400" enable-background="new 0 0 400 400" xml:space="preserve">
<g>
	<g>
		<path fill="#FFFFFF" d="M97.7,365.1H13.8c-6.1,0-11.1-5-11.1-11.1V53.1c0-6.1,5-11.1,11.1-11.1h83.9c6.1,0,11.1,5,11.1,11.1V354
			C108.8,360.1,103.8,365.1,97.7,365.1z M24.9,342.9h61.7V64.2H24.9V342.9z"/>
	</g>
	<g>
		<path fill="#FFFFFF" d="M66.7,93.7H44.8c-5.1,0-9.2-4.1-9.2-9.2c0-5.1,4.1-9.2,9.2-9.2h21.8c5.1,0,9.2,4.1,9.2,9.2
			C75.9,89.6,71.8,93.7,66.7,93.7z"/>
	</g>
	<g>
		<path fill="#FFFFFF" d="M66.7,329.5H44.8c-5.1,0-9.2-4.1-9.2-9.2c0-5.1,4.1-9.2,9.2-9.2h21.8c5.1,0,9.2,4.1,9.2,9.2
			C75.9,325.4,71.8,329.5,66.7,329.5z"/>
	</g>
	<g>
		<path fill="#FFFFFF" d="M58.2,242.1c-2.4,0-4.7-1.2-6.1-3.2l-19.2-28.3c-1.5-2.2-1.7-5-0.5-7.4l17.3-35.2c1.2-2.4,3.6-4,6.3-4.1
			c2.6-0.2,5.3,1.3,6.6,3.6l21.1,35.2c1.5,2.5,1.4,5.6-0.2,8l-19.2,28.3C62.9,240.8,60.6,242.1,58.2,242.1z M47.5,205.8l10.7,15.7
			l10.4-15.4l-11.7-19.5L47.5,205.8z"/>
	</g>
</g>
<g>
	<g>
		<path fill="#FFFFFF" d="M212.6,365.1h-83.9c-6.1,0-11.1-5-11.1-11.1V53.1c0-6.1,5-11.1,11.1-11.1h83.9c6.1,0,11.1,5,11.1,11.1V354
			C223.7,360.1,218.7,365.1,212.6,365.1z M139.8,342.9h61.7V64.2h-61.7V342.9z"/>
	</g>
	<g>
		<path fill="#FFFFFF" d="M181.6,93.7h-21.8c-5.1,0-9.2-4.1-9.2-9.2c0-5.1,4.1-9.2,9.2-9.2h21.8c5.1,0,9.2,4.1,9.2,9.2
			C190.8,89.6,186.7,93.7,181.6,93.7z"/>
	</g>
	<g>
		<path fill="#FFFFFF" d="M181.6,329.5h-21.8c-5.1,0-9.2-4.1-9.2-9.2c0-5.1,4.1-9.2,9.2-9.2h21.8c5.1,0,9.2,4.1,9.2,9.2
			C190.8,325.4,186.7,329.5,181.6,329.5z"/>
	</g>
	<g>
		<path fill="#FFFFFF" d="M173.1,242.1c-2.4,0-4.7-1.2-6.1-3.2l-19.2-28.3c-1.5-2.2-1.7-5-0.5-7.4l17.3-35.2c1.2-2.4,3.6-4,6.3-4.1
			c2.6-0.2,5.3,1.3,6.6,3.6l21.1,35.2c1.5,2.5,1.4,5.6-0.2,8l-19.2,28.3C177.8,240.8,175.5,242.1,173.1,242.1z M162.4,205.8
			l10.7,15.7l10.4-15.4l-11.7-19.5L162.4,205.8z"/>
	</g>
</g>
<g>
	<g>
		<path fill="#FFFFFF" d="M305,366.5c-1.9,0-3.8-0.5-5.5-1.4c-2.6-1.5-4.4-3.9-5.2-6.7l-80.2-290c-1.6-5.9,1.8-12,7.7-13.6
			l80.8-22.4c2.8-0.8,5.9-0.4,8.4,1c2.6,1.4,4.4,3.9,5.2,6.7l80.2,290c1.6,5.9-1.8,12-7.7,13.6L308,366.1
			C307,366.4,306,366.5,305,366.5z M238.4,73.2l74.3,268.6l59.5-16.5L297.9,56.7L238.4,73.2z"/>
	</g>
	<g>
		<path fill="#FFFFFF" d="M263,96.6c-4.1,0-7.8-2.7-8.9-6.8c-1.4-4.9,1.5-10,6.4-11.4l21.1-5.8c4.9-1.4,10,1.5,11.4,6.4
			c1.4,4.9-1.5,10-6.4,11.4l-21.1,5.8C264.7,96.5,263.8,96.6,263,96.6z"/>
	</g>
	<g>
		<path fill="#FFFFFF" d="M325.9,323.9c-4.1,0-7.8-2.7-8.9-6.8c-1.4-4.9,1.5-10,6.4-11.4l21.1-5.8c5-1.4,10,1.5,11.4,6.4
			c1.4,4.9-1.5,10-6.4,11.4l-21.1,5.8C327.5,323.8,326.7,323.9,325.9,323.9z"/>
	</g>
	<g>
		<path fill="#FFFFFF" d="M315.9,236c-1.7,0-3.4-0.6-4.8-1.8l-26-22.1c-2-1.7-3-4.4-2.5-7l7.3-38.5c0.5-2.7,2.4-4.8,5-5.7
			c2.6-0.8,5.4-0.2,7.4,1.7l29.7,28.3c2.1,2,2.8,5,1.9,7.7l-11,32.4c-0.8,2.3-2.7,4.1-5,4.8C317.3,235.9,316.6,236,315.9,236z
			 M298,203.6l14.5,12.3l6-17.6l-16.5-15.7L298,203.6z"/>
	</g>
</g>
</svg>
