<?xml version="1.0" encoding="utf-8"?>
<!-- Generator: Adobe Illustrator 22.0.1, SVG Export Plug-In . SVG Version: 6.00 Build 0)  -->
<svg version="1.1" id="Layer_1" xmlns="http://www.w3.org/2000/svg" xmlns:xlink="http://www.w3.org/1999/xlink" x="0px" y="0px"
	 viewBox="0 0 513 87.4" enable-background="new 0 0 513 87.4" xml:space="preserve">
<g>
	<g>
		<path fill="#010101" d="M88.1,88.5H0.3V0.7h87.8L88.1,88.5L88.1,88.5z M3.3,85.5h81.8V3.7H3.3V85.5z"/>
	</g>
	<g>
		<rect x="9.5" y="9.9" fill="#00A99D" width="69.3" height="69.3"/>
	</g>
	<g>
		<g>
			<path fill="#00A99D" d="M162.9,29.4c-4.6,0.6-5.3,1.2-7.1,6.6c-2.1,6.3-7.2,22.7-10.9,34.6h-2.5c-3.4-10.1-7.6-22.1-11.1-31.8
				c-3.7,11-7.5,21.9-10.8,31.8H118c-3.1-10.9-7-23.3-10.5-34.8c-1.7-5.2-2.5-6-6.7-6.5v-1.9h16.8v1.9c-4.8,0.5-5,1.3-4.1,4.6
				c2.5,8.6,5,17.1,7.6,25.9c3.5-10.2,7.3-21.3,10.6-31.9h2.3c3.6,10.9,7.3,21.1,11.1,32c2.7-8.4,6.3-19.9,7.6-25.2
				c1-3.8,0.4-4.7-5.1-5.3v-1.9h15.3V29.4z"/>
		</g>
		<g>
			<path fill="#00A99D" d="M179.4,70.7c-1.1,0-2.6-0.5-3.2-1.3c-0.9-0.8-1.3-1.8-1.6-2.8c-2.6,1.7-5.8,4.1-7.7,4.1
				c-4.8,0-8.1-3.9-8.1-8.1c0-3.2,1.7-5.2,5.3-6.5c4-1.4,8.9-3.1,10.4-4.3v-1.6c0-4.4-2.2-7-5.4-7c-1.4,0-2.3,0.7-3,1.5
				c-0.7,0.9-1.2,2.4-1.7,4.3c-0.4,1.2-1,1.6-2.1,1.6c-1.3,0-3.1-1.4-3.1-3c0-1,0.8-1.8,2.2-2.7c2.1-1.5,5.9-3.8,9.6-4.6
				c2.1,0,4.1,0.6,5.7,1.8c2.4,2,3.4,4.3,3.4,7.7c0,3.5,0,8.9,0,12.4c0,3,1.1,3.9,2.3,3.9c0.8,0,1.6-0.3,2.3-0.7l0.7,1.9L179.4,70.7
				z M174.4,54.2c-1.4,0.7-4.2,1.9-5.6,2.6c-2.4,1.1-3.8,2.3-3.8,4.7c0,3.5,2.6,5,4.6,5c1.6,0,3.7-0.9,4.9-2.1
				C174.4,61.3,174.4,57.2,174.4,54.2z"/>
		</g>
		<g>
			<path fill="#00A99D" d="M185.6,69.9V68c4.1-0.4,4.6-0.8,4.6-5V32c0-3.9-0.3-4.3-4.4-4.8v-1.8c3.7-0.4,7.8-1.4,10.1-2.2
				c0,3,0,6.1,0,9.2V63c0,4.3,0.4,4.6,4.5,5v1.9L185.6,69.9L185.6,69.9z"/>
		</g>
		<g>
			<path fill="#00A99D" d="M219.7,49.1c-1.3-3.9-3.2-6.5-7-6.5c-2.2,0-4.1,1.6-4.1,4.1c0,2.8,2.1,4.1,5.6,5.7
				c5.3,2.4,8.5,4.5,8.5,9.1c0,6.1-5.6,9.2-10.9,9.2c-3.4,0-6.5-1.1-7.9-1.9c-0.3-1.8-0.9-5.7-1.2-7.9l1.9-0.3
				c1.2,4.2,3.6,7.8,8.1,7.8c2.5,0,4.5-1.7,4.5-4.3c0-2.8-1.6-4.3-5.3-6c-4.3-2-8.4-4.2-8.4-9.2c0-4.8,4.2-8.6,10.5-8.6
				c2.8,0,5.2,0.7,6.5,0.9c0.2,1.6,0.7,5.7,1,7.3L219.7,49.1z"/>
		</g>
		<g>
			<path fill="#00A99D" d="M243.9,69.9V68c3.6-0.4,4.1-0.8,4.1-4.9V52.2c0-5.4-2.1-7.9-6.1-7.9c-2.3,0-4.8,1.1-6.5,3.1V63
				c0,4.1,0.5,4.5,4.2,4.9v1.9h-14.5v-1.9c3.7-0.3,4.5-0.6,4.5-5V31.6c0-3.4-0.2-4.2-4.5-4.6v-1.8c3.7-0.3,7.7-1.3,10.2-2.2
				c0,2.5,0,5.4,0,8v13.9c2.3-2.3,5.9-4.7,9.4-4.7c5.4,0,9.1,3.4,9.1,11.1v11.6c0,4.3,0.5,4.6,4.2,4.9v1.9h-14.1V69.9z"/>
		</g>
		<g>
			<path fill="#00A99D" d="M297.9,37.6c-1.1-4.3-3.2-8.7-9-8.7c-4.9,0-6.9,3.4-6.9,6.9c0,4.5,3,6.8,8.3,9.4
				c5.5,2.8,11.3,5.8,11.3,13.1c0,7.1-6,12.6-14.6,12.6c-3.7,0-7.4-1.1-10.2-2c-0.4-1.6-1.3-7.2-1.8-10.3l2.1-0.5
				c1.1,4.1,4.2,10.4,10.8,10.4c4.8,0,7.6-3,7.6-7.6c0-4.7-3.2-6.9-8.3-9.6c-4.7-2.5-10.9-5.7-10.9-13.1c0-6.4,4.8-11.6,13.6-11.6
				c4,0,7.6,1,9,1.1c0.3,2.4,0.6,5.3,1.1,9.5L297.9,37.6z"/>
		</g>
		<g>
			<path fill="#00A99D" d="M321.2,40.4c8.4,0,14.4,6.3,14.4,14.7c0,10.6-7.8,15.7-14.4,15.7c-9.2,0-14.7-7.3-14.7-14.7
				C306.5,45.5,314.7,40.4,321.2,40.4z M320.4,42.7c-3.8,0-7.2,3.7-7.2,11.4c0,8.3,3.5,14.3,8.6,14.3c3.8,0,7-2.7,7-11.8
				C328.8,48.7,325.8,42.7,320.4,42.7z"/>
		</g>
		<g>
			<path fill="#00A99D" d="M338,69.9V68c4.1-0.4,4.6-0.8,4.6-5V32c0-3.9-0.3-4.3-4.4-4.8v-1.8c3.7-0.4,7.8-1.4,10.1-2.2
				c0,3,0,6.1,0,9.2V63c0,4.3,0.4,4.6,4.5,5v1.9L338,69.9L338,69.9z"/>
		</g>
		<g>
			<path fill="#00A99D" d="M354.8,69.9V68c4-0.4,4.5-0.7,4.5-5.2V49.5c0-4.1-0.2-4.4-4-5v-1.7c3.5-0.6,6.8-1.4,9.7-2.6
				c0,2.7,0,5.5,0,8.2v14.3c0,4.4,0.4,4.8,4.6,5.2v1.9h-14.8V69.9z M361.8,34.3c-1.9,0-3.7-1.7-3.7-3.7c0-2.2,1.7-3.8,3.8-3.8
				c2,0,3.6,1.6,3.6,3.8C365.4,32.6,363.8,34.3,361.8,34.3z"/>
		</g>
		<g>
			<path fill="#00A99D" d="M396.5,63.9c-2.9,3.9-7.3,6.7-11.2,6.7c-8.4,0-13.4-6.7-13.4-13.8c0-5.1,2.3-9.5,6.6-12.7
				c3.6-2.8,7.6-3.8,10.2-3.8c2.9,0,5,0.9,6,1.7c0.9,0.7,1.1,1.2,1.1,2c0,1.6-1.7,3.1-2.5,3.1c-0.4,0-0.6-0.1-1.3-0.7
				c-2.2-1.9-4.4-2.9-6.6-2.9c-4,0-7.7,3.4-7.7,10.3c-0.1,9,6.2,12,9.8,12c2.7,0,4.9-0.7,7.8-3.4L396.5,63.9z"/>
		</g>
		<g>
			<path fill="#00A99D" d="M399,69.9V68c4-0.4,4.5-0.7,4.5-5.2V49.5c0-4.1-0.2-4.4-4-5v-1.7c3.5-0.6,6.8-1.4,9.7-2.6
				c0,2.7,0,5.5,0,8.2v14.3c0,4.4,0.4,4.8,4.6,5.2v1.9H399V69.9z M406,34.3c-1.9,0-3.7-1.7-3.7-3.7c0-2.2,1.7-3.8,3.8-3.8
				c2,0,3.6,1.6,3.6,3.8C409.6,32.6,408,34.3,406,34.3z"/>
		</g>
		<g>
			<path fill="#00A99D" d="M428.5,69.9c-1.1,0.6-2.2,0.8-2.8,0.8c-4.3,0-6.7-2.5-6.7-7.9V43.9h-4.4l-0.3-0.8l1.8-2h2.9v-5.5
				c1.4-1.4,3.5-3.1,5-4.5l1,0.2c-0.1,2.6-0.2,6.3-0.2,9.8h7.3c0.6,0.7,0.4,2.2-0.4,2.8h-6.9v16.6c0,5.3,2.1,6.2,3.7,6.2
				c1.5,0,2.9-0.5,3.8-1l0.6,1.8L428.5,69.9z"/>
		</g>
		<g>
			<path fill="#00A99D" d="M448.5,40.4c8.4,0,14.4,6.3,14.4,14.7c0,10.6-7.8,15.7-14.4,15.7c-9.2,0-14.7-7.3-14.7-14.7
				C433.8,45.5,442.1,40.4,448.5,40.4z M447.7,42.7c-3.8,0-7.2,3.7-7.2,11.4c0,8.3,3.5,14.3,8.6,14.3c3.8,0,7-2.7,7-11.8
				C456.2,48.7,453.2,42.7,447.7,42.7z"/>
		</g>
		<g>
			<path fill="#00A99D" d="M481.4,69.9H466V68c4-0.4,4.4-0.7,4.4-4.9V49.4c0-4.1-0.3-4.3-3.9-4.8v-1.7c3.4-0.5,6.4-1.3,9.7-2.6
				c0,2.2,0,5,0,7.2c2.4-3.6,5.1-7,8.2-7c2.4,0,3.9,1.5,3.9,3.3s-1.3,3.3-2.4,3.9c-0.7,0.4-1.2,0.3-1.8-0.2c-1-1-1.8-1.7-3-1.7
				c-1.3,0-3.6,1.8-5,5v12.3c0,4.2,0.4,4.5,5.3,5V69.9z"/>
		</g>
		<g>
			<path fill="#00A99D" d="M506.9,49.1c-1.3-3.9-3.2-6.5-7-6.5c-2.2,0-4.1,1.6-4.1,4.1c0,2.8,2.1,4.1,5.6,5.7
				c5.3,2.4,8.5,4.5,8.5,9.1c0,6.1-5.6,9.2-10.9,9.2c-3.4,0-6.5-1.1-7.9-1.9c-0.3-1.8-0.9-5.7-1.2-7.9l1.9-0.3
				c1.2,4.2,3.6,7.8,8.1,7.8c2.5,0,4.5-1.7,4.5-4.3c0-2.8-1.6-4.3-5.3-6c-4.3-2-8.4-4.2-8.4-9.2c0-4.8,4.2-8.6,10.5-8.6
				c2.8,0,5.2,0.7,6.5,0.9c0.2,1.6,0.7,5.7,1,7.3L506.9,49.1z"/>
		</g>
	</g>
	<g>
		<g>
			<path fill="#FFFFFF" d="M75.4,26.9c-4.6,0.6-5.3,1.2-7.1,6.6c-2.1,6.3-7.2,22.7-10.9,34.6h-2.5C51.5,58,47.3,46,43.8,36.3
				c-3.7,11-7.5,21.9-10.8,31.8h-2.5c-3.1-10.9-7-23.3-10.5-34.8c-1.7-5.2-2.5-6-6.7-6.5v-1.9h16.8v1.9c-4.8,0.5-5,1.3-4.1,4.6
				c2.5,8.6,5,17.1,7.6,25.9c3.5-10.2,7.3-21.3,10.6-31.9h2.3c3.6,10.9,7.3,21.1,11.1,32c2.7-8.4,6.3-19.9,7.6-25.2
				c1-3.8,0.4-4.7-5.1-5.3V25h15.1v1.9H75.4z"/>
		</g>
	</g>
</g>
</svg>
